<svg xmlns="http://www.w3.org/2000/svg" viewBox="0 0 103.74 103.57"><defs><style>.cls-1{fill:#9b7c38;}.cls-2{fill:#231f20;}</style></defs><g id="Layer_2" data-name="Layer 2"><g id="Layer_1-2" data-name="Layer 1"><path class="cls-1" d="M51.89,103.57C81.72,93,103.74,64.74,103.74,24.27V5.73S78.05,0,51.89,0,0,5.73,0,5.73V24.27C0,64.74,22,93,51.89,103.57Z"/><path class="cls-2" d="M51.89,28.75A93,93,0,0,1,62.18,18,92.07,92.07,0,0,1,75.6,8.18,223.89,223.89,0,0,0,51.89,6.8Z"/><path class="cls-2" d="M56.12,34.33A95.23,95.23,0,0,1,69.25,61.42,69.66,69.66,0,0,1,89.91,28.6a67.91,67.91,0,0,1,7-5.45c0-5.07,0-9,0-11.85-2.51-.46-5.81-1-9.67-1.61A84.78,84.78,0,0,0,56.12,34.33Z"/><path class="cls-2" d="M83.39,71.3C91,60.22,95.52,46.69,96.66,31.8A62.88,62.88,0,0,0,73.94,71.73,64.92,64.92,0,0,0,73.26,83,68.71,68.71,0,0,0,83.39,71.3Z"/><path class="cls-2" d="M51.89,96.32A68.88,68.88,0,0,0,66.56,88.4a90.71,90.71,0,0,0-1-12.33,88.6,88.6,0,0,0-13.7-35.9Z"/><path class="cls-2" d="M51.89,40.17V28.75A93,93,0,0,0,41.6,18,92.27,92.27,0,0,0,28.18,8.18,221.58,221.58,0,0,1,51.89,6.8V0C25.73,0,0,5.73,0,5.73V24.27C0,64.74,22,93,51.89,103.57V96.32a68.3,68.3,0,0,1-14.67-7.89,89.59,89.59,0,0,1,1-12.36A88.59,88.59,0,0,1,51.89,40.17ZM16.51,9.69A85,85,0,0,1,47.67,34.33,95.53,95.53,0,0,0,34.53,61.42,69.64,69.64,0,0,0,13.88,28.6,68.36,68.36,0,0,0,6.8,23.12V11.31C9.32,10.84,12.63,10.27,16.51,9.69ZM20.35,71.3C12.74,60.22,8.21,46.67,7.08,31.76a63,63,0,0,1,22.76,40A64.46,64.46,0,0,1,30.52,83,68.83,68.83,0,0,1,20.35,71.3Z"/></g></g></svg>